<svg style="position: absolute; width: 0; height: 0; overflow: hidden;" version="1.1" xmlns="http://www.w3.org/2000/svg" xmlns:xlink="http://www.w3.org/1999/xlink">
    <defs>

    <symbol id="icon-facebook-square" viewBox="0 0 24 28">
        <title>Facebook</title>
        <path d="M19.5 2c2.484 0 4.5 2.016 4.5 4.5v15c0 2.484-2.016 4.5-4.5 4.5h-2.938v-9.297h3.109l0.469-3.625h-3.578v-2.312c0-1.047 0.281-1.75 1.797-1.75l1.906-0.016v-3.234c-0.328-0.047-1.469-0.141-2.781-0.141-2.766 0-4.672 1.687-4.672 4.781v2.672h-3.125v3.625h3.125v9.297h-8.313c-2.484 0-4.5-2.016-4.5-4.5v-15c0-2.484 2.016-4.5 4.5-4.5h15z"></path>
    </symbol>

    <symbol id="icon-twitter-square" viewBox="0 0 24 28">
        <title>Twitter</title>
        <path d="M20 9.531c-0.594 0.266-1.219 0.438-1.891 0.531 0.688-0.406 1.203-1.062 1.453-1.828-0.641 0.375-1.344 0.656-2.094 0.797-0.594-0.641-1.453-1.031-2.391-1.031-1.813 0-3.281 1.469-3.281 3.281 0 0.25 0.016 0.516 0.078 0.75-2.734-0.141-5.156-1.437-6.781-3.437-0.281 0.484-0.453 1.062-0.453 1.656 0 1.141 0.531 2.141 1.422 2.734-0.547-0.016-1.062-0.172-1.563-0.406v0.031c0 1.594 1.203 2.922 2.703 3.219-0.281 0.078-0.5 0.125-0.797 0.125-0.203 0-0.406-0.031-0.609-0.063 0.422 1.297 1.625 2.25 3.063 2.281-1.125 0.875-2.531 1.406-4.078 1.406-0.266 0-0.531-0.016-0.781-0.047 1.453 0.922 3.172 1.469 5.031 1.469 6.031 0 9.344-5 9.344-9.344 0-0.141 0-0.281-0.016-0.422 0.641-0.453 1.203-1.031 1.641-1.703zM24 6.5v15c0 2.484-2.016 4.5-4.5 4.5h-15c-2.484 0-4.5-2.016-4.5-4.5v-15c0-2.484 2.016-4.5 4.5-4.5h15c2.484 0 4.5 2.016 4.5 4.5z"></path>
    </symbol>

    <symbol id="icon-instagram-square" viewBox="0 0 24 28">
        <title>Instagram</title>
        <path d="M16 14c0-2.203-1.797-4-4-4s-4 1.797-4 4 1.797 4 4 4 4-1.797 4-4zM18.156 14c0 3.406-2.75 6.156-6.156 6.156s-6.156-2.75-6.156-6.156 2.75-6.156 6.156-6.156 6.156 2.75 6.156 6.156zM19.844 7.594c0 0.797-0.641 1.437-1.437 1.437s-1.437-0.641-1.437-1.437 0.641-1.437 1.437-1.437 1.437 0.641 1.437 1.437zM12 4.156c-1.75 0-5.5-0.141-7.078 0.484-0.547 0.219-0.953 0.484-1.375 0.906s-0.688 0.828-0.906 1.375c-0.625 1.578-0.484 5.328-0.484 7.078s-0.141 5.5 0.484 7.078c0.219 0.547 0.484 0.953 0.906 1.375s0.828 0.688 1.375 0.906c1.578 0.625 5.328 0.484 7.078 0.484s5.5 0.141 7.078-0.484c0.547-0.219 0.953-0.484 1.375-0.906s0.688-0.828 0.906-1.375c0.625-1.578 0.484-5.328 0.484-7.078s0.141-5.5-0.484-7.078c-0.219-0.547-0.484-0.953-0.906-1.375s-0.828-0.688-1.375-0.906c-1.578-0.625-5.328-0.484-7.078-0.484zM24 14c0 1.656 0.016 3.297-0.078 4.953-0.094 1.922-0.531 3.625-1.937 5.031s-3.109 1.844-5.031 1.937c-1.656 0.094-3.297 0.078-4.953 0.078s-3.297 0.016-4.953-0.078c-1.922-0.094-3.625-0.531-5.031-1.937s-1.844-3.109-1.937-5.031c-0.094-1.656-0.078-3.297-0.078-4.953s-0.016-3.297 0.078-4.953c0.094-1.922 0.531-3.625 1.937-5.031s3.109-1.844 5.031-1.937c1.656-0.094 3.297-0.078 4.953-0.078s3.297-0.016 4.953 0.078c1.922 0.094 3.625 0.531 5.031 1.937s1.844 3.109 1.937 5.031c0.094 1.656 0.078 3.297 0.078 4.953z"></path>
    </symbol>

    <symbol id="icon-pinterest-square" viewBox="0 0 24 28">
        <title>Pinterest</title>
        <path d="M19.5 2c2.484 0 4.5 2.016 4.5 4.5v15c0 2.484-2.016 4.5-4.5 4.5h-11.328c0.516-0.734 1.359-2 1.687-3.281 0 0 0.141-0.531 0.828-3.266 0.422 0.797 1.625 1.484 2.906 1.484 3.813 0 6.406-3.484 6.406-8.141 0-3.516-2.984-6.797-7.516-6.797-5.641 0-8.484 4.047-8.484 7.422 0 2.031 0.781 3.844 2.438 4.531 0.266 0.109 0.516 0 0.594-0.297 0.047-0.203 0.172-0.734 0.234-0.953 0.078-0.297 0.047-0.406-0.172-0.656-0.469-0.578-0.781-1.297-0.781-2.344 0-3 2.25-5.672 5.844-5.672 3.187 0 4.937 1.937 4.937 4.547 0 3.422-1.516 6.312-3.766 6.312-1.234 0-2.172-1.031-1.875-2.297 0.359-1.5 1.047-3.125 1.047-4.203 0-0.969-0.516-1.781-1.594-1.781-1.266 0-2.281 1.313-2.281 3.063 0 0 0 1.125 0.375 1.891-1.297 5.5-1.531 6.469-1.531 6.469-0.344 1.437-0.203 3.109-0.109 3.969h-2.859c-2.484 0-4.5-2.016-4.5-4.5v-15c0-2.484 2.016-4.5 4.5-4.5h15z"></path>
    </symbol>

    <symbol id="icon-clients-square" viewBox="0 0 548.169 548.169">
        <title>Client's Area</title>
        <path d="M109.634 164.452c20.18 0 37.402-7.135 51.674-21.41 14.277-14.276 21.416-31.504 21.416-51.68 0-20.172-7.14-37.4-21.416-51.677-14.272-14.275-31.496-21.414-51.674-21.414-20.177 0-37.4 7.14-51.676 21.42-14.274 14.28-21.413 31.5-21.413 51.68s7.14 37.41 21.413 51.68c14.275 14.28 31.5 21.41 51.676 21.41zM196.57 278.52c21.412 21.405 47.247 32.113 77.515 32.113 30.27 0 56.103-10.708 77.515-32.114 21.41-21.42 32.117-47.26 32.117-77.52 0-30.27-10.708-56.11-32.117-77.52-21.412-21.42-47.246-32.12-77.515-32.12-30.268 0-56.105 10.71-77.516 32.12-21.42 21.41-32.12 47.25-32.12 77.51s10.7 56.1 32.12 77.52zm241.973-114.068c20.17 0 37.397-7.135 51.67-21.41 14.275-14.276 21.41-31.504 21.41-51.68 0-20.172-7.135-37.4-21.41-51.677-14.272-14.275-31.5-21.414-51.67-21.414-20.184 0-37.407 7.14-51.682 21.42-14.27 14.28-21.4 31.5-21.4 51.68s7.14 37.41 21.41 51.68c14.28 14.28 31.5 21.41 51.68 21.41zm74.22.004c-1.136 0-5.276 2-12.415 5.996-7.132 4-16.416 8.044-27.833 12.137-11.416 4.08-22.747 6.13-33.972 6.13-12.758 0-25.406-2.19-37.973-6.57.945 7.04 1.424 13.32 1.424 18.84 0 26.45-7.71 50.82-23.134 73.09 30.84.95 56.056 13.13 75.668 36.55h38.256c15.605 0 28.74-3.87 39.396-11.57 10.657-7.71 15.99-18.99 15.99-33.83.002-67.2-11.794-100.79-35.407-100.79z"/>
        <path d="M470.096 395.284c-2-11.136-4.524-21.464-7.57-30.978-3.046-9.52-7.14-18.794-12.27-27.836-5.142-9.034-11.045-16.748-17.707-23.127-6.67-6.38-14.81-11.464-24.42-15.276-9.61-3.806-20.23-5.708-31.84-5.708-1.91 0-6 2.04-12.28 6.14-6.29 4.08-13.23 8.66-20.84 13.7-7.62 5.03-17.79 9.61-30.55 13.7-12.77 4.09-25.61 6.14-38.55 6.14-12.94 0-25.79-2.05-38.548-6.14-12.757-4.1-22.937-8.67-30.55-13.7-7.617-5.04-14.56-9.62-20.84-13.7-6.285-4.1-10.375-6.14-12.28-6.14-11.61 0-22.22 1.9-31.834 5.7-9.614 3.81-17.75 8.89-24.41 15.27-6.668 6.37-12.563 14.09-17.706 23.12-5.134 9.04-9.23 18.314-12.272 27.835-3.045 9.513-5.564 19.84-7.566 30.977-2 11.137-3.33 21.506-4 31.12-.667 9.615-1 19.47-1 29.556 0 22.834 6.946 40.872 20.84 54.096 13.9 13.223 32.363 19.842 55.39 19.842h249.54c23.027 0 41.49-6.62 55.39-19.845 13.895-13.223 20.84-31.26 20.84-54.097 0-10.09-.333-19.94-.99-29.55-.676-9.617-2.007-19.987-4-31.12zM169.303 274.088c-15.418-22.27-23.125-46.632-23.122-73.09 0-5.52.48-11.798 1.43-18.84-12.56 4.376-25.22 6.566-37.97 6.566-11.23 0-22.55-2.046-33.97-6.136-11.41-4.093-20.7-8.138-27.83-12.137-7.14-3.99-11.28-5.99-12.42-5.99C11.8 164.46 0 198.05 0 265.24c0 14.844 5.33 26.127 15.987 33.83 10.66 7.707 23.794 11.563 39.397 11.563h38.26c19.607-23.41 44.823-35.59 75.66-36.545z"/>
    </symbol>


    <symbol id="icon-search" viewBox="0 0 475.084 475.084">
        <title>Search this site.</title>
        <path d="M464.524 412.846l-97.93-97.925c23.6-34.067 35.407-72.046 35.407-113.916 0-27.218-5.283-53.25-15.85-78.087-10.562-24.842-24.84-46.254-42.826-64.24-17.987-17.988-39.396-32.265-64.233-42.827C254.247 5.285 228.218.003 201 .003c-27.217 0-53.248 5.282-78.086 15.847-24.842 10.562-46.254 24.84-64.24 42.826-17.99 17.987-32.265 39.403-42.828 64.24C5.282 147.76 0 173.787 0 201.005c0 27.216 5.282 53.238 15.846 78.083 10.562 24.838 24.838 46.247 42.827 64.234 17.987 17.994 39.403 32.265 64.24 42.833 24.842 10.563 50.87 15.844 78.086 15.844 41.878 0 79.85-11.807 113.92-35.405l97.93 97.64c6.852 7.232 15.406 10.85 25.693 10.85 9.897 0 18.467-3.617 25.694-10.85 7.23-7.23 10.848-15.795 10.848-25.692.003-10.082-3.518-18.65-10.56-25.694zm-173.16-121.488c-25.03 25.033-55.15 37.55-90.365 37.55-35.21 0-65.33-12.52-90.36-37.55-25.032-25.03-37.547-55.144-37.547-90.36 0-35.21 12.518-65.334 37.546-90.36 25.025-25.032 55.15-37.546 90.36-37.546s65.33 12.52 90.363 37.546 37.548 55.15 37.548 90.36c0 35.216-12.518 65.33-37.547 90.36z"/>
    </symbol>


    <symbol id="icon-more" viewBox="0 0 30 30">
        <g id="Symbol_1_1" data-name="Symbol 1 – 1" transform="translate(-323 -560)">
            <circle id="Ellipse_1" data-name="Ellipse 1" style="fill: rgba(0,0,0,0.75);" cx="15" cy="15" r="15" transform="translate(323 560)"/>
            <g id="noun_more_965913" transform="translate(323 560)">
            <g id="Group_1" data-name="Group 1">
                <path id="Path_1" data-name="Path 1" style="fill: #fff;" d="M15,0A15,15,0,1,0,30,15,15,15,0,0,0,15,0Zm0,29A14,14,0,1,1,29,15,14,14,0,0,1,15,29Z"/>
                <path id="Path_2" data-name="Path 2" style="fill: #fff;" d="M12,24a3,3,0,1,0,3,3A3,3,0,0,0,12,24Zm0,5a2,2,0,1,1,2-2A2,2,0,0,1,12,29Z" transform="translate(-4.5 -12)"/>
                <path id="Path_3" data-name="Path 3" style="fill: #fff;" d="M27,24a3,3,0,1,0,3,3A3,3,0,0,0,27,24Zm0,5a2,2,0,1,1,2-2A2,2,0,0,1,27,29Z" transform="translate(-12 -12)"/>
                <path id="Path_4" data-name="Path 4" style="fill: #fff;" d="M42,24a3,3,0,1,0,3,3A3,3,0,0,0,42,24Zm0,5a2,2,0,1,1,2-2A2,2,0,0,1,42,29Z" transform="translate(-19.5 -12)"/>
            </g>
            </g>
        </g>
    </symbol>

    </defs>
</svg>